<svg xmlns="http://www.w3.org/2000/svg" viewBox="0 0 64 64" role="img" aria-label="Skriber logo">
  <rect x="8" y="8" width="48" height="48" rx="10" fill="#4f46e5" />
  <path
    d="M32 18c-6.5 0-11 3-11 7.5 0 3 2 5.3 5.8 6.4l4.6 1.3c2.3.6 3.6 1.7 3.6 3.3 0 2.1-2.1 3.5-5.4 3.5-3 0-5.4-1.1-7.3-3.2l-3 3.3C22 43.1 25.7 45 30.7 45 37.5 45 42 41.7 42 36.3c0-3.2-2-5.6-5.7-6.8l-4.7-1.5c-2.2-.7-3.5-1.6-3.5-3.2 0-1.9 2-3.2 4.9-3.2 2.6 0 4.7.9 6.4 2.6l2.9-3.2C39.7 19.3 36.4 18 32 18Z"
    fill="#f9fafb"
  />
</svg>
